HIERARCHY
ROOT Hips
{
	OFFSET 0.00000 0.00000 0.00000
	CHANNELS 6 Xposition Yposition Zposition Zrotation Yrotation Xrotation 
	JOINT LHipJoint
	{
		OFFSET 0 0 0
		CHANNELS 3 Zrotation Yrotation Xrotation
		JOINT LeftHip
		{
			OFFSET 1.77779 -1.88989 0.48267
			CHANNELS 3 Zrotation Yrotation Xrotation
			JOINT LeftKnee
			{
				OFFSET 2.53442 -6.96327 0.00000
				CHANNELS 3 Zrotation Yrotation Xrotation
				JOINT LeftAnkle
				{
					OFFSET 2.71068 -7.44755 0.00000
					CHANNELS 3 Zrotation Yrotation Xrotation
					JOINT LeftToe
					{
						OFFSET 0.17992 -0.49431 2.22524
						CHANNELS 3 Zrotation Yrotation Xrotation
						End Site
						{
							OFFSET 0.00000 -0.00000 1.14687
						}
					}
				}
			}
		}
	}
	JOINT RHipJoint
	{
		OFFSET 0 0 0
		CHANNELS 3 Zrotation Yrotation Xrotation
		JOINT RightHip
		{
			OFFSET -1.58469 -1.88989 0.48267
			CHANNELS 3 Zrotation Yrotation Xrotation
			JOINT RightKnee
			{
				OFFSET -2.60386 -7.15404 0.00000
				CHANNELS 3 Zrotation Yrotation Xrotation
				JOINT RightAnkle
				{
					OFFSET -2.73334 -7.50979 0.00000
					CHANNELS 3 Zrotation Yrotation Xrotation
					JOINT RightToe
					{
						OFFSET -0.25618 -0.70384 2.21822
						CHANNELS 3 Zrotation Yrotation Xrotation
						End Site
						{
							OFFSET -0.00000 -0.00000 1.16381
						}
					}
				}
			}
		}
	}
	JOINT lowerback
	{
		OFFSET 0 0 0
		CHANNELS 3 Zrotation Yrotation Xrotation
		JOINT Chest
		{
			OFFSET 0.03410 2.01612 -0.22230
			CHANNELS 3 Zrotation Yrotation Xrotation
			JOINT Chest2
			{
				OFFSET 0.03465 2.03012 0.00937
				CHANNELS 3 Zrotation Yrotation Xrotation
				JOINT lowerneck
				{
					OFFSET 0 0 0
					CHANNELS 3 Zrotation Yrotation Xrotation
					JOINT Neck
					{
						OFFSET -0.00219 1.70459 0.20857
						CHANNELS 3 Zrotation Yrotation Xrotation
						JOINT Head
						{
							OFFSET 0.02518 1.72339 -0.22179
							CHANNELS 3 Zrotation Yrotation Xrotation
							End Site
							{
								OFFSET 0.00282 1.74122 -0.09823
							}
						}
					}
				}
				JOINT LeftCollar
				{
					OFFSET 0 0 0
					CHANNELS 3 Zrotation Yrotation Xrotation
					JOINT LeftShoulder
					{
						OFFSET 3.36358 1.00547 -0.37661
CHANNELS 3 Zrotation Xrotation Yrotation
						JOINT LeftElbow
						{
OFFSET 0 -5.065070 0.000000
CHANNELS 3 Zrotation Xrotation Yrotation
							JOINT LeftWrist
							{
OFFSET 0 -3.601960 0.000000
CHANNELS 3 Zrotation Xrotation Yrotation
								JOINT lhand
								{
									OFFSET 0 0 0
CHANNELS 3 Zrotation Xrotation Yrotation
									JOINT LFingers
									{
OFFSET 0 -0.450350 0.000000
CHANNELS 3 Zrotation Xrotation Yrotation
										End Site
										{
OFFSET 0 -0.363080 0.000000
										}
									}
								}
								JOINT LThumb
								{
OFFSET 0 0.000000 0.000000
CHANNELS 3 Zrotation Xrotation Yrotation
									End Site
									{
OFFSET 0 -0.368620 0.368620
									}
								}
							}
						}
					}
				}
				JOINT RightCollar
				{
					OFFSET 0 0 0
					CHANNELS 3 Zrotation Yrotation Xrotation
					JOINT RightShoulder
					{
						OFFSET -3.50159 0.80383 -0.71526
CHANNELS 3 Zrotation Xrotation Yrotation
						JOINT RightElbow
						{
OFFSET 0 -5.363940 0.000000
CHANNELS 3 Zrotation Xrotation Yrotation
							JOINT RightWrist
							{
OFFSET 0 -3.580350 0.000000
CHANNELS 3 Zrotation Xrotation Yrotation
								JOINT rhand
								{
									OFFSET 0 0 0
CHANNELS 3 Zrotation Xrotation Yrotation
									JOINT RFingers
									{
OFFSET 0 -0.663750 0.000000
CHANNELS 3 Zrotation Xrotation Yrotation
										End Site
										{
OFFSET 0 -0.535130 0.000000
										}
									}
								}
								JOINT RThumb
								{
OFFSET 0 0.000000 0.000000
CHANNELS 3 Zrotation Xrotation Yrotation
									End Site
									{
OFFSET 0 -0.543300 0.543300
									}
								}
							}
						}
					}
				}
			}
		}
	}
}
MOTION
Frames: 5
Frame Time: 0.008333333333333333
0.488236 17.854740 11.560505 -1.017454 -3.670663 -3.196201 0.000000 0.000000 0.000000 -22.182435 -8.068504 -15.596524 2.687738 10.171547 29.534033 0.097175 -6.206770 -6.577713 0.010933 0.641464 1.762809 0.000000 0.000000 0.000000 22.029724 3.093317 -3.875885 -12.125161 -18.439544 66.381153 -0.637610 -7.473464 14.380783 -1.156789 -6.822951 19.194026 1.916224 2.143962 10.511216 1.008449 3.147542 -0.032577 -0.505368 1.505187 -5.884740 -1.257905 -3.380528 -16.273473 1.154059 -4.645948 20.697998 0.015745 -2.139362 9.257991 0.000000 0.000000 0.000000 2.435196 8.330044 -21.641187 12.024082 -19.840724 2.110472 28.658953 6.419867 -20.122707 0.000000 0.000000 0.000000 -7.125000 0.000000 0.000000 0.224142 52.642626 -0.042179 0.000000 0.000000 0.000000 -2.382856 -6.124895 6.999244 -13.731841 -22.349754 -2.725481 -19.078564 -2.302662 -18.700053 0.000000 0.000000 0.000000 7.125000 0.000000 0.000000 5.922401 10.355002 4.779391
0.498055 17.861867 11.695814 -0.777652 -3.694518 -3.330164 0.000000 0.000000 0.000000 -22.619249 -7.846618 -14.947256 2.687234 10.170588 29.531110 0.134452 -6.217948 -7.317500 0.003080 0.354580 0.974150 0.000000 0.000000 0.000000 21.608920 3.131364 -4.867569 -12.618379 -18.639227 67.935220 -0.564735 -7.850910 13.642630 -1.251967 -7.086060 19.973637 1.633241 2.107324 10.561350 1.016231 3.063947 0.051623 -0.326298 1.473331 -5.841077 -1.390076 -3.329200 -16.376600 1.226251 -4.552224 20.567844 0.073562 -2.098321 9.235823 0.000000 0.000000 0.000000 2.453805 8.143413 -21.712932 12.063127 -19.899290 2.123778 28.586666 6.241246 -20.162389 0.000000 0.000000 0.000000 -7.125000 0.000000 0.000000 0.140787 52.672396 -0.026526 0.000000 0.000000 0.000000 -2.378540 -6.116845 6.538274 -13.534028 -22.064570 -2.650606 -18.520913 -0.828680 -16.287938 0.000000 0.000000 0.000000 7.125000 0.000000 0.000000 6.164029 12.925851 4.655320
0.509292 17.863645 11.830157 -0.642954 -3.723463 -3.400074 0.000000 0.000000 0.000000 -22.933949 -7.619963 -14.366360 2.690790 10.176846 29.551450 0.169087 -6.140713 -7.916034 0.001800 0.270234 0.742517 0.000000 0.000000 0.000000 21.313067 3.202341 -5.906682 -13.083566 -18.809911 69.382766 -0.402158 -7.914917 11.747250 -0.953411 -6.193167 17.354128 1.510135 2.088406 10.627917 1.001652 3.023978 0.067838 -0.268763 1.456618 -5.867462 -1.490993 -3.287667 -16.630066 1.339685 -4.494974 20.723807 0.130670 -2.063402 9.341505 0.000000 0.000000 0.000000 2.571008 7.930556 -21.915620 12.021878 -19.837417 2.109696 28.622509 6.404676 -20.521182 0.000000 0.000000 0.000000 -7.125000 0.000000 0.000000 0.103379 53.073860 -0.020410 0.000000 0.000000 0.000000 -2.294834 -6.104541 5.777590 -13.285113 -21.703217 -2.558009 -18.050322 0.366467 -14.867630 0.000000 0.000000 0.000000 7.125000 0.000000 0.000000 6.434848 14.447219 4.652333
0.520088 17.866597 11.961223 -0.541175 -3.747419 -3.508186 0.000000 0.000000 0.000000 -23.199782 -7.387830 -13.787762 2.694297 10.182958 29.571252 0.197803 -6.083876 -8.395313 0.002036 0.288657 0.793172 0.000000 0.000000 0.000000 21.068379 3.282122 -6.936892 -13.523414 -18.960443 70.741190 -0.216640 -7.802439 9.067961 -0.500187 -4.132872 11.509027 1.461868 2.080446 10.744916 0.962811 3.007391 0.078036 -0.284307 1.448563 -5.923050 -1.471042 -3.257286 -16.605305 1.340566 -4.457338 20.669534 0.133336 -2.044869 9.317025 0.000000 0.000000 0.000000 2.759285 7.719459 -22.229686 11.965221 -19.752407 2.090528 28.626999 6.198163 -20.450992 0.000000 0.000000 0.000000 -7.125000 0.000000 0.000000 0.122859 52.997573 -0.024027 0.000000 0.000000 0.000000 -2.174881 -6.062400 4.917120 -13.015116 -21.308748 -2.459250 -17.829832 1.197101 -14.629153 0.000000 0.000000 0.000000 7.125000 0.000000 0.000000 6.574576 14.717002 4.720566
0.529984 17.870823 12.090180 -0.458426 -3.767067 -3.620437 0.000000 0.000000 0.000000 -23.431995 -7.156435 -13.224973 2.695758 10.185497 29.579450 0.222230 -6.049560 -8.793014 0.002800 0.341210 0.937567 0.000000 0.000000 0.000000 20.859797 3.378420 -7.972558 -13.937838 -19.093793 72.013443 -0.053963 -7.737102 6.488635 -0.115225 -2.181108 6.006640 1.423032 2.062514 10.867577 0.934412 2.979340 0.086846 -0.292595 1.434742 -5.983438 -1.403437 -3.229464 -16.413862 1.268059 -4.417728 20.486554 0.107243 -2.032312 9.214129 0.000000 0.000000 0.000000 2.943783 7.504353 -22.551279 11.894478 -19.646157 2.066706 28.635085 5.756993 -20.033862 0.000000 0.000000 0.000000 -7.125000 0.000000 0.000000 0.215019 52.539768 -0.038474 0.000000 0.000000 0.000000 -2.066162 -6.023862 4.038340 -12.726353 -20.884463 -2.355228 -17.858516 1.835508 -15.162472 0.000000 0.000000 0.000000 7.125000 0.000000 0.000000 6.571599 14.161231 4.794303
